<svg width="48" height="48" viewBox="0 0 48 48" fill="none" xmlns="http://www.w3.org/2000/svg">
<path d="M24 44C12.9543 44 4 35.0456 4 24C4 12.9543 12.9543 4 24 4C35.0456 4 44 12.9543 44 24C44 35.0456 35.0456 44 24 44ZM24 40C32.8366 40 40 32.8366 40 24C40 15.1634 32.8366 8 24 8C15.1634 8 8 15.1634 8 24C8 32.8366 15.1634 40 24 40ZM26 21V30H28V34H20V30H22V25H20V21H26ZM27 16C27 17.6569 25.6568 19 24 19C22.3432 19 21 17.6569 21 16C21 14.3431 22.3432 13 24 13C25.6568 13 27 14.3431 27 16Z" fill="#CAA24B"/>
</svg>
