<svg width="40" height="40" viewBox="0 0 40 40" fill="none" xmlns="http://www.w3.org/2000/svg">
<path d="M24.7617 28.47C27.867 28.1023 30.9181 27.3695 33.8517 26.2867C31.3673 23.5347 29.9945 19.9575 30 16.25V15C30 12.3478 28.9464 9.8043 27.0711 7.92893C25.1957 6.05357 22.6522 5 20 5C17.3478 5 14.8043 6.05357 12.9289 7.92893C11.0536 9.8043 10 12.3478 10 15V16.25C10.005 19.9577 8.63164 23.5349 6.14666 26.2867C9.035 27.3533 12.08 28.095 15.2383 28.47M24.7617 28.47C21.5983 28.8452 18.4017 28.8452 15.2383 28.47M24.7617 28.47C25.0018 29.2198 25.0616 30.0157 24.936 30.7929C24.8104 31.5701 24.503 32.3067 24.039 32.9426C23.5749 33.5786 22.9672 34.096 22.2653 34.4527C21.5635 34.8094 20.7873 34.9953 20 34.9953C19.2127 34.9953 18.4365 34.8094 17.7347 34.4527C17.0328 34.096 16.4251 33.5786 15.961 32.9426C15.4969 32.3067 15.1896 31.5701 15.064 30.7929C14.9384 30.0157 14.9982 29.2198 15.2383 28.47M5.20667 12.5C5.67661 9.70828 6.92966 7.10741 8.82 5M31.18 5C33.0703 7.10741 34.3234 9.70828 34.7933 12.5" stroke="#CAA24B" stroke-width="1.5" stroke-linecap="round" stroke-linejoin="round"/>
</svg>
