<svg width="18" height="19" viewBox="0 0 18 19" fill="none" xmlns="http://www.w3.org/2000/svg">
<path d="M8.86668 18.0667C4.08021 18.0667 0.200012 14.1865 0.200012 9.40007C0.200012 4.6136 4.08021 0.733398 8.86668 0.733398C13.6531 0.733398 17.5333 4.6136 17.5333 9.40007C17.5333 14.1865 13.6531 18.0667 8.86668 18.0667ZM8.86668 16.3334C12.6959 16.3334 15.8 13.2293 15.8 9.40007C15.8 5.57089 12.6959 2.46673 8.86668 2.46673C5.0375 2.46673 1.93335 5.57089 1.93335 9.40007C1.93335 13.2293 5.0375 16.3334 8.86668 16.3334ZM9.30001 9.8334H11.0333H13.6333V11.1334H8.00001V4.20007H9.30001V7.2334V9.8334Z" fill="#F7F7F7"/>
</svg>
