<svg width="48" height="48" viewBox="0 0 48 48" fill="none" xmlns="http://www.w3.org/2000/svg">
<path d="M8 4C6.89544 4 6 4.89544 6 6V10H10V8H38V40H10V38H6V42C6 43.1046 6.89544 44 8 44H40C41.1046 44 42 43.1046 42 42V6C42 4.89544 41.1046 4 40 4H8ZM18 32C18 28.6862 20.6862 26 24 26C27.3138 26 30 28.6862 30 32H18ZM24 24C21.7908 24 20 22.2092 20 20C20 17.7909 21.7908 16 24 16C26.2092 16 28 17.7909 28 20C28 22.2092 26.2092 24 24 24ZM12 18V14H4V18H12ZM12 22V26H4V22H12ZM12 34V30H4V34H12Z" fill="#CAA24B"/>
</svg>
