<svg width="81" height="20" viewBox="0 0 81 20" fill="none" xmlns="http://www.w3.org/2000/svg">
<mask id="path-1-outside-1_17_28" maskUnits="userSpaceOnUse" x="-1" y="-1" width="83" height="22" fill="black">
<rect fill="white" x="-1" y="-1" width="83" height="22"/>
<path d="M15.672 5.728C15.672 6.336 15.512 6.92 15.192 7.48C14.888 8.024 14.432 8.512 13.824 8.944C13.216 9.36 12.48 9.688 11.616 9.928V10.048C13.152 10.176 14.328 10.576 15.144 11.248C15.96 11.92 16.368 12.848 16.368 14.032C16.368 14.816 16.176 15.52 15.792 16.144C15.424 16.752 14.888 17.272 14.184 17.704C13.496 18.136 12.656 18.464 11.664 18.688C10.672 18.896 9.56 19 8.328 19H0.48L0.624 17.296L2.664 16.96L3.264 4.12L1.248 3.736L1.392 2.08H9.408C11.472 2.08 13.032 2.376 14.088 2.968C15.144 3.56 15.672 4.48 15.672 5.728ZM8.544 9.568C9.104 9.456 9.576 9.272 9.96 9.016C10.344 8.744 10.632 8.392 10.824 7.96C11.032 7.528 11.136 7 11.136 6.376C11.136 5.512 10.92 4.896 10.488 4.528C10.056 4.16 9.384 3.976 8.472 3.976H8.088L7.512 17.032H8.016C8.736 17.032 9.368 16.936 9.912 16.744C10.456 16.536 10.88 16.2 11.184 15.736C11.504 15.272 11.664 14.64 11.664 13.84C11.664 13.232 11.568 12.744 11.376 12.376C11.184 11.992 10.912 11.712 10.56 11.536C10.224 11.344 9.824 11.248 9.36 11.248C9.136 11.248 8.96 11.256 8.832 11.272C8.72 11.272 8.608 11.28 8.496 11.296L8.544 9.568ZM24.987 6.28C26.363 6.28 27.435 6.56 28.203 7.12C28.987 7.68 29.379 8.472 29.379 9.496C29.379 10.008 29.291 10.472 29.115 10.888C28.939 11.288 28.651 11.648 28.251 11.968C27.867 12.272 27.363 12.56 26.739 12.832C26.131 13.088 25.387 13.336 24.507 13.576L22.419 14.128C22.499 14.752 22.643 15.264 22.851 15.664C23.075 16.048 23.363 16.336 23.715 16.528C24.067 16.72 24.443 16.816 24.843 16.816C25.211 16.816 25.579 16.752 25.947 16.624C26.331 16.48 26.707 16.296 27.075 16.072C27.443 15.848 27.795 15.592 28.131 15.304L29.163 16.84C28.827 17.224 28.443 17.576 28.011 17.896C27.579 18.2 27.115 18.464 26.619 18.688C26.123 18.896 25.619 19.056 25.107 19.168C24.595 19.28 24.099 19.336 23.619 19.336C22.435 19.336 21.403 19.12 20.523 18.688C19.643 18.24 18.955 17.592 18.459 16.744C17.963 15.88 17.715 14.832 17.715 13.6C17.715 12.048 18.011 10.728 18.603 9.64C19.211 8.552 20.051 7.72 21.123 7.144C22.211 6.568 23.499 6.28 24.987 6.28ZM25.347 9.448C25.347 9.112 25.307 8.84 25.227 8.632C25.147 8.424 25.035 8.272 24.891 8.176C24.763 8.064 24.603 8.008 24.411 8.008C24.059 8.008 23.739 8.152 23.451 8.44C23.163 8.728 22.923 9.184 22.731 9.808C22.555 10.416 22.435 11.216 22.371 12.208L23.499 11.92C23.899 11.792 24.235 11.648 24.507 11.488C24.779 11.312 24.987 11.064 25.131 10.744C25.275 10.424 25.347 9.992 25.347 9.448ZM30.6452 6.76L32.5172 6.568L34.1012 2.92H37.0532L36.8372 6.616H39.8612L39.7892 8.416H36.7892L36.4292 15.016C36.4132 15.576 36.4692 16.024 36.5972 16.36C36.7412 16.68 37.0692 16.84 37.5812 16.84C37.9652 16.84 38.3332 16.752 38.6852 16.576C39.0372 16.4 39.3972 16.152 39.7652 15.832L40.7012 17.248C40.3652 17.616 39.9492 17.96 39.4532 18.28C38.9732 18.6 38.4212 18.856 37.7972 19.048C37.1892 19.24 36.5252 19.336 35.8052 19.336C34.5092 19.336 33.5332 19.016 32.8772 18.376C32.2212 17.736 31.9252 16.824 31.9892 15.64L32.3732 8.416H30.4532L30.6452 6.76ZM40.6406 7.336C40.9286 7.176 41.3046 7.016 41.7686 6.856C42.2486 6.696 42.7446 6.56 43.2566 6.448C43.7846 6.336 44.2646 6.28 44.6966 6.28C45.5766 6.28 46.2326 6.504 46.6646 6.952C47.0966 7.4 47.2646 8.04 47.1686 8.872L46.5446 15.256C46.5126 15.656 46.5206 15.936 46.5686 16.096C46.6166 16.256 46.7526 16.336 46.9766 16.336C47.1206 16.336 47.2406 16.28 47.3366 16.168C47.4486 16.056 47.5526 15.864 47.6486 15.592C47.7606 15.304 47.8886 14.92 48.0326 14.44L50.4086 6.616H54.9446L54.3926 16.24C54.3766 16.496 54.4086 16.696 54.4886 16.84C54.5846 16.968 54.7206 17.032 54.8966 17.032C55.0886 17.032 55.2886 17 55.4966 16.936C55.7046 16.872 55.8966 16.792 56.0726 16.696L56.5286 18.184C56.3206 18.328 56.0726 18.464 55.7846 18.592C55.5126 18.72 55.2086 18.848 54.8726 18.976C54.5366 19.088 54.2006 19.176 53.8646 19.24C53.5286 19.304 53.2086 19.336 52.9046 19.336C52.0086 19.336 51.3286 19.088 50.8646 18.592C50.4166 18.08 50.2566 17.344 50.3846 16.384L51.2726 10.12L51.0326 10.072L49.3046 15.784C49.0326 16.664 48.7126 17.36 48.3446 17.872C47.9766 18.384 47.5446 18.76 47.0486 19C46.5526 19.224 45.9766 19.336 45.3206 19.336C44.2966 19.336 43.4966 19.016 42.9206 18.376C42.3606 17.72 42.1286 16.816 42.2246 15.664L42.7046 9.424C42.7366 9.072 42.6966 8.832 42.5846 8.704C42.4886 8.576 42.3366 8.512 42.1286 8.512C41.9686 8.512 41.8006 8.536 41.6246 8.584C41.4646 8.632 41.2886 8.704 41.0966 8.8L40.6406 7.336ZM58.5043 2.68L56.4163 2.272L56.6323 0.592H62.2963L62.7043 0.855999L62.1763 16C62.1603 16.288 62.2083 16.528 62.3203 16.72C62.4323 16.912 62.6483 17.008 62.9683 17.008C63.1603 17.008 63.3603 16.976 63.5683 16.912C63.7923 16.832 64.0003 16.736 64.1923 16.624L64.6483 18.04C64.4723 18.184 64.1843 18.36 63.7843 18.568C63.3843 18.76 62.9283 18.936 62.4163 19.096C61.9043 19.256 61.3763 19.336 60.8323 19.336C60.1923 19.336 59.6483 19.232 59.2003 19.024C58.7523 18.816 58.4243 18.504 58.2163 18.088C58.0083 17.656 57.9123 17.128 57.9283 16.504L58.5043 2.68ZM78.3268 15.952C78.3108 16.288 78.3348 16.552 78.3988 16.744C78.4788 16.92 78.6628 17.008 78.9508 17.008C79.1588 17.008 79.3668 16.968 79.5748 16.888C79.7988 16.808 79.9828 16.72 80.1268 16.624L80.5588 18.088C80.3668 18.248 80.0708 18.432 79.6708 18.64C79.2868 18.832 78.8468 18.992 78.3508 19.12C77.8548 19.264 77.3588 19.336 76.8628 19.336C76.3028 19.336 75.8068 19.232 75.3748 19.024C74.9588 18.816 74.6468 18.504 74.4388 18.088C74.2308 17.656 74.1748 17.104 74.2708 16.432L74.9188 11.896L74.6548 11.872L73.9108 14.464C73.7348 15.12 73.5428 15.744 73.3348 16.336C73.1268 16.912 72.8628 17.432 72.5428 17.896C72.2388 18.344 71.8388 18.696 71.3428 18.952C70.8468 19.208 70.2148 19.336 69.4468 19.336C68.5028 19.336 67.7188 19.128 67.0948 18.712C66.4708 18.28 66.0068 17.688 65.7028 16.936C65.3988 16.184 65.2468 15.312 65.2468 14.32C65.2468 13.152 65.3908 12.08 65.6788 11.104C65.9668 10.112 66.3908 9.264 66.9508 8.56C67.5268 7.84 68.2228 7.28 69.0388 6.88C69.8708 6.48 70.8148 6.28 71.8708 6.28C72.6388 6.28 73.3028 6.36 73.8628 6.52C74.4228 6.68 74.8548 6.832 75.1588 6.976L77.7268 6.304L78.6388 6.688L78.3268 15.952ZM70.8388 17.032C71.0308 17.032 71.1988 16.976 71.3428 16.864C71.4868 16.752 71.6308 16.552 71.7748 16.264C71.9348 15.976 72.1028 15.544 72.2788 14.968C72.4548 14.376 72.6708 13.608 72.9268 12.664L74.0788 8.368C73.9188 8.272 73.7108 8.184 73.4548 8.104C73.1988 8.024 72.9348 7.984 72.6628 7.984C72.1188 7.984 71.6708 8.168 71.3188 8.536C70.9668 8.888 70.6788 9.384 70.4548 10.024C70.2468 10.648 70.0948 11.368 69.9988 12.184C69.9028 12.984 69.8468 13.832 69.8308 14.728C69.8308 15.336 69.8628 15.808 69.9268 16.144C70.0068 16.48 70.1268 16.712 70.2868 16.84C70.4468 16.968 70.6308 17.032 70.8388 17.032Z"/>
</mask>
<path d="M15.672 5.728C15.672 6.336 15.512 6.92 15.192 7.48C14.888 8.024 14.432 8.512 13.824 8.944C13.216 9.36 12.48 9.688 11.616 9.928V10.048C13.152 10.176 14.328 10.576 15.144 11.248C15.96 11.92 16.368 12.848 16.368 14.032C16.368 14.816 16.176 15.52 15.792 16.144C15.424 16.752 14.888 17.272 14.184 17.704C13.496 18.136 12.656 18.464 11.664 18.688C10.672 18.896 9.56 19 8.328 19H0.48L0.624 17.296L2.664 16.96L3.264 4.12L1.248 3.736L1.392 2.08H9.408C11.472 2.08 13.032 2.376 14.088 2.968C15.144 3.56 15.672 4.48 15.672 5.728ZM8.544 9.568C9.104 9.456 9.576 9.272 9.96 9.016C10.344 8.744 10.632 8.392 10.824 7.96C11.032 7.528 11.136 7 11.136 6.376C11.136 5.512 10.92 4.896 10.488 4.528C10.056 4.16 9.384 3.976 8.472 3.976H8.088L7.512 17.032H8.016C8.736 17.032 9.368 16.936 9.912 16.744C10.456 16.536 10.88 16.2 11.184 15.736C11.504 15.272 11.664 14.64 11.664 13.84C11.664 13.232 11.568 12.744 11.376 12.376C11.184 11.992 10.912 11.712 10.56 11.536C10.224 11.344 9.824 11.248 9.36 11.248C9.136 11.248 8.96 11.256 8.832 11.272C8.72 11.272 8.608 11.28 8.496 11.296L8.544 9.568ZM24.987 6.28C26.363 6.28 27.435 6.56 28.203 7.12C28.987 7.68 29.379 8.472 29.379 9.496C29.379 10.008 29.291 10.472 29.115 10.888C28.939 11.288 28.651 11.648 28.251 11.968C27.867 12.272 27.363 12.56 26.739 12.832C26.131 13.088 25.387 13.336 24.507 13.576L22.419 14.128C22.499 14.752 22.643 15.264 22.851 15.664C23.075 16.048 23.363 16.336 23.715 16.528C24.067 16.72 24.443 16.816 24.843 16.816C25.211 16.816 25.579 16.752 25.947 16.624C26.331 16.48 26.707 16.296 27.075 16.072C27.443 15.848 27.795 15.592 28.131 15.304L29.163 16.84C28.827 17.224 28.443 17.576 28.011 17.896C27.579 18.2 27.115 18.464 26.619 18.688C26.123 18.896 25.619 19.056 25.107 19.168C24.595 19.28 24.099 19.336 23.619 19.336C22.435 19.336 21.403 19.12 20.523 18.688C19.643 18.24 18.955 17.592 18.459 16.744C17.963 15.88 17.715 14.832 17.715 13.6C17.715 12.048 18.011 10.728 18.603 9.64C19.211 8.552 20.051 7.72 21.123 7.144C22.211 6.568 23.499 6.28 24.987 6.28ZM25.347 9.448C25.347 9.112 25.307 8.84 25.227 8.632C25.147 8.424 25.035 8.272 24.891 8.176C24.763 8.064 24.603 8.008 24.411 8.008C24.059 8.008 23.739 8.152 23.451 8.44C23.163 8.728 22.923 9.184 22.731 9.808C22.555 10.416 22.435 11.216 22.371 12.208L23.499 11.92C23.899 11.792 24.235 11.648 24.507 11.488C24.779 11.312 24.987 11.064 25.131 10.744C25.275 10.424 25.347 9.992 25.347 9.448ZM30.6452 6.76L32.5172 6.568L34.1012 2.92H37.0532L36.8372 6.616H39.8612L39.7892 8.416H36.7892L36.4292 15.016C36.4132 15.576 36.4692 16.024 36.5972 16.36C36.7412 16.68 37.0692 16.84 37.5812 16.84C37.9652 16.84 38.3332 16.752 38.6852 16.576C39.0372 16.4 39.3972 16.152 39.7652 15.832L40.7012 17.248C40.3652 17.616 39.9492 17.96 39.4532 18.28C38.9732 18.6 38.4212 18.856 37.7972 19.048C37.1892 19.24 36.5252 19.336 35.8052 19.336C34.5092 19.336 33.5332 19.016 32.8772 18.376C32.2212 17.736 31.9252 16.824 31.9892 15.64L32.3732 8.416H30.4532L30.6452 6.76ZM40.6406 7.336C40.9286 7.176 41.3046 7.016 41.7686 6.856C42.2486 6.696 42.7446 6.56 43.2566 6.448C43.7846 6.336 44.2646 6.28 44.6966 6.28C45.5766 6.28 46.2326 6.504 46.6646 6.952C47.0966 7.4 47.2646 8.04 47.1686 8.872L46.5446 15.256C46.5126 15.656 46.5206 15.936 46.5686 16.096C46.6166 16.256 46.7526 16.336 46.9766 16.336C47.1206 16.336 47.2406 16.28 47.3366 16.168C47.4486 16.056 47.5526 15.864 47.6486 15.592C47.7606 15.304 47.8886 14.92 48.0326 14.44L50.4086 6.616H54.9446L54.3926 16.24C54.3766 16.496 54.4086 16.696 54.4886 16.84C54.5846 16.968 54.7206 17.032 54.8966 17.032C55.0886 17.032 55.2886 17 55.4966 16.936C55.7046 16.872 55.8966 16.792 56.0726 16.696L56.5286 18.184C56.3206 18.328 56.0726 18.464 55.7846 18.592C55.5126 18.72 55.2086 18.848 54.8726 18.976C54.5366 19.088 54.2006 19.176 53.8646 19.24C53.5286 19.304 53.2086 19.336 52.9046 19.336C52.0086 19.336 51.3286 19.088 50.8646 18.592C50.4166 18.08 50.2566 17.344 50.3846 16.384L51.2726 10.12L51.0326 10.072L49.3046 15.784C49.0326 16.664 48.7126 17.36 48.3446 17.872C47.9766 18.384 47.5446 18.76 47.0486 19C46.5526 19.224 45.9766 19.336 45.3206 19.336C44.2966 19.336 43.4966 19.016 42.9206 18.376C42.3606 17.72 42.1286 16.816 42.2246 15.664L42.7046 9.424C42.7366 9.072 42.6966 8.832 42.5846 8.704C42.4886 8.576 42.3366 8.512 42.1286 8.512C41.9686 8.512 41.8006 8.536 41.6246 8.584C41.4646 8.632 41.2886 8.704 41.0966 8.8L40.6406 7.336ZM58.5043 2.68L56.4163 2.272L56.6323 0.592H62.2963L62.7043 0.855999L62.1763 16C62.1603 16.288 62.2083 16.528 62.3203 16.72C62.4323 16.912 62.6483 17.008 62.9683 17.008C63.1603 17.008 63.3603 16.976 63.5683 16.912C63.7923 16.832 64.0003 16.736 64.1923 16.624L64.6483 18.04C64.4723 18.184 64.1843 18.36 63.7843 18.568C63.3843 18.76 62.9283 18.936 62.4163 19.096C61.9043 19.256 61.3763 19.336 60.8323 19.336C60.1923 19.336 59.6483 19.232 59.2003 19.024C58.7523 18.816 58.4243 18.504 58.2163 18.088C58.0083 17.656 57.9123 17.128 57.9283 16.504L58.5043 2.68ZM78.3268 15.952C78.3108 16.288 78.3348 16.552 78.3988 16.744C78.4788 16.92 78.6628 17.008 78.9508 17.008C79.1588 17.008 79.3668 16.968 79.5748 16.888C79.7988 16.808 79.9828 16.72 80.1268 16.624L80.5588 18.088C80.3668 18.248 80.0708 18.432 79.6708 18.64C79.2868 18.832 78.8468 18.992 78.3508 19.12C77.8548 19.264 77.3588 19.336 76.8628 19.336C76.3028 19.336 75.8068 19.232 75.3748 19.024C74.9588 18.816 74.6468 18.504 74.4388 18.088C74.2308 17.656 74.1748 17.104 74.2708 16.432L74.9188 11.896L74.6548 11.872L73.9108 14.464C73.7348 15.12 73.5428 15.744 73.3348 16.336C73.1268 16.912 72.8628 17.432 72.5428 17.896C72.2388 18.344 71.8388 18.696 71.3428 18.952C70.8468 19.208 70.2148 19.336 69.4468 19.336C68.5028 19.336 67.7188 19.128 67.0948 18.712C66.4708 18.28 66.0068 17.688 65.7028 16.936C65.3988 16.184 65.2468 15.312 65.2468 14.32C65.2468 13.152 65.3908 12.08 65.6788 11.104C65.9668 10.112 66.3908 9.264 66.9508 8.56C67.5268 7.84 68.2228 7.28 69.0388 6.88C69.8708 6.48 70.8148 6.28 71.8708 6.28C72.6388 6.28 73.3028 6.36 73.8628 6.52C74.4228 6.68 74.8548 6.832 75.1588 6.976L77.7268 6.304L78.6388 6.688L78.3268 15.952ZM70.8388 17.032C71.0308 17.032 71.1988 16.976 71.3428 16.864C71.4868 16.752 71.6308 16.552 71.7748 16.264C71.9348 15.976 72.1028 15.544 72.2788 14.968C72.4548 14.376 72.6708 13.608 72.9268 12.664L74.0788 8.368C73.9188 8.272 73.7108 8.184 73.4548 8.104C73.1988 8.024 72.9348 7.984 72.6628 7.984C72.1188 7.984 71.6708 8.168 71.3188 8.536C70.9668 8.888 70.6788 9.384 70.4548 10.024C70.2468 10.648 70.0948 11.368 69.9988 12.184C69.9028 12.984 69.8468 13.832 69.8308 14.728C69.8308 15.336 69.8628 15.808 69.9268 16.144C70.0068 16.48 70.1268 16.712 70.2868 16.84C70.4468 16.968 70.6308 17.032 70.8388 17.032Z" fill="#F7F7F7"/>
<path d="M15.192 7.48L14.3237 6.98384L14.3191 6.99218L15.192 7.48ZM13.824 8.944L14.3887 9.76931L14.396 9.76431L14.4032 9.75918L13.824 8.944ZM11.616 9.928L11.3484 8.96448L10.616 9.16791V9.928H11.616ZM11.616 10.048H10.616V10.9681L11.533 11.0445L11.616 10.048ZM15.792 16.144L14.9403 15.6199L14.9365 15.6262L15.792 16.144ZM14.184 17.704L13.661 16.8516L13.6522 16.8571L14.184 17.704ZM11.664 18.688L11.8692 19.6667L11.8768 19.6651L11.8843 19.6634L11.664 18.688ZM0.48 19L-0.516448 18.9158L-0.608071 20H0.48V19ZM0.624 17.296L0.461484 16.3093L-0.306875 16.4358L-0.372448 17.2118L0.624 17.296ZM2.664 16.96L2.82652 17.9467L3.62513 17.8152L3.66291 17.0067L2.664 16.96ZM3.264 4.12L4.26291 4.16668L4.30341 3.3L3.45111 3.13766L3.264 4.12ZM1.248 3.736L0.251759 3.64937L0.173504 4.54931L1.06089 4.71834L1.248 3.736ZM1.392 2.08V1.08H0.475183L0.395759 1.99337L1.392 2.08ZM14.088 2.968L13.599 3.84028H13.599L14.088 2.968ZM8.544 9.568L8.34788 8.58742L7.56651 8.74369L7.54439 9.54023L8.544 9.568ZM9.96 9.016L10.5147 9.84805L10.5265 9.8402L10.538 9.83202L9.96 9.016ZM10.824 7.96L9.923 7.52618L9.91638 7.53992L9.91019 7.55386L10.824 7.96ZM10.488 4.528L9.83953 5.28924L10.488 4.528ZM8.088 3.976V2.976H7.13115L7.08897 3.93192L8.088 3.976ZM7.512 17.032L6.51297 16.9879L6.46691 18.032H7.512V17.032ZM9.912 16.744L10.2448 17.687L10.257 17.6827L10.2691 17.6781L9.912 16.744ZM11.184 15.736L10.3608 15.1683L10.354 15.178L10.3475 15.188L11.184 15.736ZM11.376 12.376L10.4816 12.8232L10.4854 12.8309L10.4894 12.8386L11.376 12.376ZM10.56 11.536L10.0639 12.4042L10.088 12.418L10.1128 12.4304L10.56 11.536ZM8.832 11.272V12.272H8.89426L8.95603 12.2643L8.832 11.272ZM8.496 11.296L7.49639 11.2682L7.46346 12.4537L8.63742 12.2859L8.496 11.296ZM14.672 5.728C14.672 6.15132 14.5629 6.56543 14.3238 6.98386L16.0602 7.97614C16.4611 7.27457 16.672 6.52068 16.672 5.728H14.672ZM14.3191 6.99218C14.1003 7.3836 13.7553 7.76608 13.2448 8.12882L14.4032 9.75918C15.1087 9.25792 15.6757 8.6644 16.0649 7.96782L14.3191 6.99218ZM13.2593 8.11869C12.7593 8.4608 12.1286 8.74774 11.3484 8.96448L11.8836 10.8915C12.8314 10.6283 13.6727 10.2592 14.3887 9.76931L13.2593 8.11869ZM10.616 9.928V10.048H12.616V9.928H10.616ZM11.533 11.0445C12.9546 11.163 13.9062 11.5241 14.5083 12.0199L15.7797 10.4761C14.7498 9.62789 13.3494 9.18898 11.699 9.05145L11.533 11.0445ZM14.5083 12.0199C15.0641 12.4776 15.368 13.1063 15.368 14.032H17.368C17.368 12.5897 16.8559 11.3624 15.7797 10.4761L14.5083 12.0199ZM15.368 14.032C15.368 14.6444 15.2205 15.1646 14.9403 15.6199L16.6437 16.6681C17.1315 15.8754 17.368 14.9876 17.368 14.032H15.368ZM14.9365 15.6262C14.6635 16.0772 14.2512 16.4895 13.661 16.8517L14.707 18.5563C15.5248 18.0545 16.1845 17.4268 16.6475 16.6618L14.9365 15.6262ZM13.6522 16.8571C13.0807 17.216 12.352 17.5075 11.4437 17.7126L11.8843 19.6634C12.96 19.4205 13.9113 19.056 14.7158 18.5509L13.6522 16.8571ZM11.4588 17.7093C10.5469 17.9005 9.50522 18 8.328 18V20C9.61478 20 10.7971 19.8915 11.8692 19.6667L11.4588 17.7093ZM8.328 18H0.48V20H8.328V18ZM1.47645 19.0842L1.62045 17.3802L-0.372448 17.2118L-0.516448 18.9158L1.47645 19.0842ZM0.786516 18.2827L2.82652 17.9467L2.50148 15.9733L0.461484 16.3093L0.786516 18.2827ZM3.66291 17.0067L4.26291 4.16668L2.26509 4.07332L1.66509 16.9133L3.66291 17.0067ZM3.45111 3.13766L1.43511 2.75366L1.06089 4.71834L3.07689 5.10234L3.45111 3.13766ZM2.24424 3.82263L2.38824 2.16663L0.395759 1.99337L0.251759 3.64937L2.24424 3.82263ZM1.392 3.08H9.408V1.08H1.392V3.08ZM9.408 3.08C11.4065 3.08 12.7634 3.37183 13.599 3.84028L14.577 2.09572C13.3006 1.38017 11.5375 1.08 9.408 1.08V3.08ZM13.599 3.84028C13.9921 4.06064 14.2468 4.31762 14.4087 4.59976C14.5715 4.88346 14.672 5.24762 14.672 5.728H16.672C16.672 4.96037 16.5085 4.24054 16.1433 3.60424C15.7772 2.96638 15.2399 2.46735 14.577 2.09572L13.599 3.84028ZM8.74012 10.5486C9.39874 10.4169 9.99954 10.1915 10.5147 9.84805L9.4053 8.18395C9.15246 8.35251 8.80926 8.49514 8.34788 8.58742L8.74012 10.5486ZM10.538 9.83202C11.0695 9.45557 11.4731 8.96168 11.7378 8.36614L9.91019 7.55386C9.79087 7.82232 9.61852 8.03243 9.38198 8.19998L10.538 9.83202ZM11.725 8.39381C12.0147 7.79208 12.136 7.10667 12.136 6.376H10.136C10.136 6.89333 10.0493 7.26392 9.923 7.52618L11.725 8.39381ZM12.136 6.376C12.136 5.37329 11.887 4.40606 11.1365 3.76676L9.83953 5.28924C9.95304 5.38594 10.136 5.6507 10.136 6.376H12.136ZM11.1365 3.76676C10.4419 3.17508 9.48619 2.976 8.472 2.976V4.976C9.28181 4.976 9.6701 5.14491 9.83953 5.28924L11.1365 3.76676ZM8.472 2.976H8.088V4.976H8.472V2.976ZM7.08897 3.93192L6.51297 16.9879L8.51103 17.0761L9.08703 4.02007L7.08897 3.93192ZM7.512 18.032H8.016V16.032H7.512V18.032ZM8.016 18.032C8.82239 18.032 9.57114 17.9248 10.2448 17.687L9.57918 15.801C9.16486 15.9472 8.64961 16.032 8.016 16.032V18.032ZM10.2691 17.6781C10.9991 17.399 11.5953 16.933 12.0205 16.284L10.3475 15.188C10.1647 15.467 9.91291 15.673 9.55486 15.8099L10.2691 17.6781ZM12.0072 16.3037C12.4814 15.6162 12.664 14.761 12.664 13.84H10.664C10.664 14.519 10.5266 14.9278 10.3608 15.1683L12.0072 16.3037ZM12.664 13.84C12.664 13.1403 12.5557 12.4752 12.2626 11.9134L10.4894 12.8386C10.5803 13.0128 10.664 13.3237 10.664 13.84H12.664ZM12.2704 11.9288C11.991 11.3699 11.5706 10.9232 11.0072 10.6416L10.1128 12.4304C10.2534 12.5008 10.377 12.6141 10.4816 12.8232L12.2704 11.9288ZM11.0561 10.6678C10.5416 10.3737 9.96338 10.248 9.36 10.248V12.248C9.68462 12.248 9.90644 12.3143 10.0639 12.4042L11.0561 10.6678ZM9.36 10.248C9.11993 10.248 8.89633 10.2562 8.70797 10.2797L8.95603 12.2643C9.02367 12.2558 9.15207 12.248 9.36 12.248V10.248ZM8.832 10.272C8.6722 10.272 8.51295 10.2834 8.35458 10.3061L8.63742 12.2859C8.70306 12.2766 8.7678 12.272 8.832 12.272V10.272ZM9.49561 11.3238L9.54361 9.59577L7.54439 9.54023L7.49639 11.2682L9.49561 11.3238ZM28.203 7.12L27.6138 7.92805L27.6218 7.93373L28.203 7.12ZM29.115 10.888L30.0303 11.2907L30.0332 11.2842L30.036 11.2776L29.115 10.888ZM28.251 11.968L28.8717 12.7521L28.8757 12.7489L28.251 11.968ZM26.739 12.832L27.1271 13.7537L27.1386 13.7487L26.739 12.832ZM24.507 13.576L24.7626 14.5428L24.7701 14.5408L24.507 13.576ZM22.419 14.128L22.1634 13.1612L21.3156 13.3853L21.4271 14.2552L22.419 14.128ZM22.851 15.664L21.9638 16.1254L21.975 16.1469L21.9872 16.1679L22.851 15.664ZM23.715 16.528L24.1939 15.6501H24.1939L23.715 16.528ZM25.947 16.624L26.2755 17.5685L26.2869 17.5645L26.2981 17.5603L25.947 16.624ZM27.075 16.072L26.5551 15.2178L27.075 16.072ZM28.131 15.304L28.9611 14.7463L28.334 13.813L27.4802 14.5447L28.131 15.304ZM29.163 16.84L29.9156 17.4985L30.4216 16.9202L29.993 16.2823L29.163 16.84ZM28.011 17.896L28.5865 18.7138L28.5964 18.7068L28.6062 18.6996L28.011 17.896ZM26.619 18.688L27.0057 19.6102L27.0182 19.605L27.0306 19.5994L26.619 18.688ZM20.523 18.688L20.0693 19.5792L20.0758 19.5825L20.0823 19.5857L20.523 18.688ZM18.459 16.744L17.5917 17.2419L17.5958 17.2489L18.459 16.744ZM18.603 9.64L17.73 9.15215L17.7246 9.16205L18.603 9.64ZM21.123 7.144L20.6551 6.26019L20.6497 6.26311L21.123 7.144ZM25.227 8.632L24.2937 8.99098L25.227 8.632ZM24.891 8.176L24.2325 8.92858L24.2818 8.97171L24.3363 9.00805L24.891 8.176ZM22.731 9.808L21.7752 9.51391L21.7728 9.52191L21.7704 9.52994L22.731 9.808ZM22.371 12.208L21.3731 12.1436L21.2844 13.5175L22.6184 13.1769L22.371 12.208ZM23.499 11.92L23.7464 12.8889L23.7753 12.8815L23.8038 12.8724L23.499 11.92ZM24.507 11.488L25.014 12.3499L25.0324 12.3391L25.0503 12.3276L24.507 11.488ZM24.987 7.28C26.2423 7.28 27.0782 7.53744 27.6138 7.92801L28.7922 6.31199C27.7918 5.58256 26.4837 5.28 24.987 5.28V7.28ZM27.6218 7.93373C28.1241 8.29257 28.379 8.77109 28.379 9.496H30.379C30.379 8.17291 29.8499 7.06743 28.7842 6.30627L27.6218 7.93373ZM28.379 9.496C28.379 9.89194 28.3114 10.221 28.194 10.4984L30.036 11.2776C30.2706 10.723 30.379 10.1241 30.379 9.496H28.379ZM28.1997 10.4853C28.099 10.7141 27.922 10.9505 27.6263 11.1871L28.8757 12.7489C29.38 12.3455 29.779 11.8619 30.0303 11.2907L28.1997 10.4853ZM27.6303 11.184C27.3345 11.4181 26.9126 11.6655 26.3394 11.9153L27.1386 13.7487C27.8134 13.4545 28.3995 13.1259 28.8717 12.752L27.6303 11.184ZM26.3509 11.9104C25.7956 12.1442 25.0961 12.3788 24.2439 12.6112L24.7701 14.5408C25.6779 14.2932 26.4664 14.0318 27.1271 13.7536L26.3509 11.9104ZM24.2514 12.6092L22.1634 13.1612L22.6746 15.0948L24.7626 14.5428L24.2514 12.6092ZM21.4271 14.2552C21.5166 14.9532 21.6847 15.5886 21.9638 16.1254L23.7382 15.2026C23.6013 14.9394 23.4814 14.5508 23.4109 14.0008L21.4271 14.2552ZM21.9872 16.1679C22.2928 16.6917 22.7072 17.1174 23.2361 17.4059L24.1939 15.6501C24.0189 15.5546 23.8572 15.4043 23.7148 15.1601L21.9872 16.1679ZM23.2361 17.4059C23.7347 17.6778 24.2753 17.816 24.843 17.816V15.816C24.6107 15.816 24.3993 15.7622 24.1939 15.6501L23.2361 17.4059ZM24.843 17.816C25.3293 17.816 25.8081 17.7311 26.2755 17.5685L25.6185 15.6795C25.3499 15.7729 25.0927 15.816 24.843 15.816V17.816ZM26.2981 17.5603C26.7437 17.3932 27.1761 17.1812 27.5949 16.9262L26.5551 15.2178C26.2379 15.4108 25.9183 15.5668 25.5959 15.6877L26.2981 17.5603ZM27.5949 16.9262C28.0103 16.6734 28.4059 16.3854 28.7818 16.0633L27.4802 14.5447C27.1841 14.7986 26.8757 15.0226 26.5551 15.2178L27.5949 16.9262ZM27.301 15.8617L28.333 17.3977L29.993 16.2823L28.9611 14.7463L27.301 15.8617ZM28.4104 16.1815C28.124 16.5089 27.7934 16.8128 27.4158 17.0924L28.6062 18.6996C29.0926 18.3392 29.53 17.9391 29.9156 17.4985L28.4104 16.1815ZM27.4355 17.0782C27.0566 17.3448 26.6477 17.5778 26.2074 17.7766L27.0306 19.5994C27.5823 19.3502 28.1014 19.0552 28.5865 18.7138L27.4355 17.0782ZM26.2323 17.7658C25.7907 17.951 25.3446 18.0924 24.8933 18.1911L25.3207 20.1449C25.8934 20.0196 26.4553 19.841 27.0057 19.6102L26.2323 17.7658ZM24.8933 18.1911C24.4451 18.2891 24.0209 18.336 23.619 18.336V20.336C24.1771 20.336 24.7449 20.2709 25.3207 20.1449L24.8933 18.1911ZM23.619 18.336C22.5565 18.336 21.6809 18.1424 20.9637 17.7903L20.0823 19.5857C21.1251 20.0976 22.3135 20.336 23.619 20.336V18.336ZM20.9767 17.7968C20.2664 17.4352 19.721 16.9209 19.3222 16.2391L17.5958 17.2489C18.189 18.2631 19.0196 19.0448 20.0693 19.5792L20.9767 17.7968ZM19.3263 16.2461C18.9356 15.5656 18.715 14.6983 18.715 13.6H16.715C16.715 14.9657 16.9904 16.1944 17.5917 17.2419L19.3263 16.2461ZM18.715 13.6C18.715 12.1735 18.9869 11.0267 19.4814 10.1179L17.7246 9.16205C17.0351 10.4293 16.715 11.9225 16.715 13.6H18.715ZM19.4759 10.1278C19.9933 9.20201 20.6965 8.50837 21.5963 8.02489L20.6497 6.26311C19.4055 6.93163 18.4287 7.90199 17.7301 9.15218L19.4759 10.1278ZM21.5909 8.02779C22.5076 7.54247 23.6283 7.28 24.987 7.28V5.28C23.3697 5.28 21.9144 5.59353 20.6551 6.26021L21.5909 8.02779ZM26.347 9.448C26.347 9.04536 26.3008 8.63831 26.1603 8.27302L24.2937 8.99098C24.3132 9.04169 24.347 9.17864 24.347 9.448H26.347ZM26.1603 8.27302C26.0274 7.92741 25.8054 7.58374 25.4457 7.34395L24.3363 9.00805C24.3204 8.99748 24.3074 8.98662 24.2972 8.97674C24.2871 8.96695 24.2809 8.95921 24.2779 8.9552C24.2724 8.94764 24.2801 8.95587 24.2937 8.99098L26.1603 8.27302ZM25.5495 7.42342C25.2156 7.13124 24.8119 7.008 24.411 7.008V9.008C24.4092 9.008 24.3839 9.00759 24.3447 8.99386C24.3036 8.9795 24.2643 8.95643 24.2325 8.92858L25.5495 7.42342ZM24.411 7.008C23.7519 7.008 23.1875 7.28924 22.7439 7.73289L24.1581 9.14711C24.2905 9.01475 24.3661 9.008 24.411 9.008V7.008ZM22.7439 7.73289C22.2912 8.18557 21.9893 8.81817 21.7752 9.51391L23.6868 10.1021C23.8567 9.54983 24.0348 9.27043 24.1581 9.14711L22.7439 7.73289ZM21.7704 9.52994C21.5662 10.2353 21.4394 11.1152 21.3731 12.1436L23.3689 12.2724C23.4306 11.3168 23.5438 10.5967 23.6916 10.0861L21.7704 9.52994ZM22.6184 13.1769L23.7464 12.8889L23.2516 10.9511L22.1236 11.2391L22.6184 13.1769ZM23.8038 12.8724C24.2527 12.7288 24.6612 12.5575 25.014 12.3499L24 10.6261C23.8088 10.7385 23.5453 10.8552 23.1942 10.9676L23.8038 12.8724ZM25.0503 12.3276C25.4974 12.0383 25.8268 11.6347 26.0429 11.1544L24.2191 10.3336C24.1472 10.4933 24.0606 10.5857 23.9637 10.6484L25.0503 12.3276ZM26.0429 11.1544C26.2681 10.654 26.347 10.0636 26.347 9.448H24.347C24.347 9.92041 24.2819 10.194 24.2191 10.3336L26.0429 11.1544ZM30.6452 6.76L30.5432 5.76522L29.7443 5.84715L29.6518 6.64483L30.6452 6.76ZM32.5172 6.568L32.6192 7.56278L33.2014 7.50307L33.4344 6.96628L32.5172 6.568ZM34.1012 2.92V1.92H33.4452L33.1839 2.52172L34.1012 2.92ZM37.0532 2.92L38.0515 2.97834L38.1133 1.92H37.0532V2.92ZM36.8372 6.616L35.8389 6.55766L35.777 7.616H36.8372V6.616ZM39.8612 6.616L40.8604 6.65597L40.902 5.616H39.8612V6.616ZM39.7892 8.416V9.416H40.75L40.7884 8.45597L39.7892 8.416ZM36.7892 8.416V7.416H35.8422L35.7907 8.36154L36.7892 8.416ZM36.4292 15.016L35.4307 14.9615L35.43 14.9745L35.4296 14.9874L36.4292 15.016ZM36.5972 16.36L35.6627 16.716L35.6732 16.7435L35.6853 16.7704L36.5972 16.36ZM38.6852 16.576L39.1324 17.4704L38.6852 16.576ZM39.7652 15.832L40.5994 15.2806L39.9701 14.3286L39.109 15.0774L39.7652 15.832ZM40.7012 17.248L41.4397 17.9223L41.9652 17.3467L41.5354 16.6966L40.7012 17.248ZM39.4532 18.28L38.9111 17.4397L38.9047 17.4438L38.8985 17.448L39.4532 18.28ZM37.7972 19.048L37.5031 18.0922L37.4961 18.0944L37.7972 19.048ZM32.8772 18.376L33.5755 17.6602L32.8772 18.376ZM31.9892 15.64L32.9877 15.694L32.9878 15.6931L31.9892 15.64ZM32.3732 8.416L33.3718 8.46908L33.4278 7.416H32.3732V8.416ZM30.4532 8.416L29.4598 8.30083L29.3305 9.416H30.4532V8.416ZM30.7472 7.75478L32.6192 7.56278L32.4152 5.57322L30.5432 5.76522L30.7472 7.75478ZM33.4344 6.96628L35.0184 3.31828L33.1839 2.52172L31.5999 6.16971L33.4344 6.96628ZM34.1012 3.92H37.0532V1.92H34.1012V3.92ZM36.0549 2.86166L35.8389 6.55766L37.8355 6.67434L38.0515 2.97834L36.0549 2.86166ZM36.8372 7.616H39.8612V5.616H36.8372V7.616ZM38.862 6.57603L38.79 8.37603L40.7884 8.45597L40.8604 6.65597L38.862 6.57603ZM39.7892 7.416H36.7892V9.416H39.7892V7.416ZM35.7907 8.36154L35.4307 14.9615L37.4277 15.0705L37.7877 8.47046L35.7907 8.36154ZM35.4296 14.9874C35.4117 15.6133 35.4693 16.2083 35.6627 16.716L37.5317 16.004C37.4691 15.8397 37.4147 15.5387 37.4288 15.0446L35.4296 14.9874ZM35.6853 16.7704C36.0616 17.6066 36.8837 17.84 37.5812 17.84V15.84C37.5041 15.84 37.4515 15.8339 37.4188 15.8277C37.3864 15.8215 37.3797 15.8164 37.3896 15.8212C37.4011 15.8268 37.4256 15.8413 37.4527 15.8689C37.4802 15.8968 37.4986 15.9264 37.5091 15.9496L35.6853 16.7704ZM37.5812 17.84C38.1244 17.84 38.6451 17.7141 39.1324 17.4704L38.238 15.6816C38.0213 15.7899 37.806 15.84 37.5812 15.84V17.84ZM39.1324 17.4704C39.5751 17.2491 40.0043 16.9492 40.4214 16.5866L39.109 15.0774C38.79 15.3548 38.4993 15.5509 38.238 15.6816L39.1324 17.4704ZM38.931 16.3834L39.867 17.7994L41.5354 16.6966L40.5994 15.2806L38.931 16.3834ZM39.9627 16.5737C39.6942 16.8678 39.3476 17.158 38.9111 17.4397L39.9953 19.1203C40.5507 18.762 41.0361 18.3642 41.4397 17.9223L39.9627 16.5737ZM38.8985 17.448C38.5087 17.7078 38.0467 17.925 37.5031 18.0922L38.0913 20.0038C38.7957 19.787 39.4377 19.4922 40.0079 19.1121L38.8985 17.448ZM37.4961 18.0944C36.9971 18.252 36.436 18.336 35.8052 18.336V20.336C36.6143 20.336 37.3812 20.228 38.0983 20.0016L37.4961 18.0944ZM35.8052 18.336C34.6613 18.336 33.9791 18.054 33.5755 17.6602L32.1789 19.0918C33.0873 19.978 34.3571 20.336 35.8052 20.336V18.336ZM33.5755 17.6602C33.1828 17.277 32.9344 16.6803 32.9877 15.694L30.9906 15.586C30.916 16.9677 31.2596 18.195 32.1789 19.0918L33.5755 17.6602ZM32.9878 15.6931L33.3718 8.46908L31.3746 8.36292L30.9906 15.5869L32.9878 15.6931ZM32.3732 7.416H30.4532V9.416H32.3732V7.416ZM31.4465 8.53117L31.6385 6.87517L29.6518 6.64483L29.4598 8.30083L31.4465 8.53117ZM40.6406 7.336L40.155 6.46184L39.444 6.85684L39.6859 7.63338L40.6406 7.336ZM41.7686 6.856L41.4524 5.90726L41.4426 5.91063L41.7686 6.856ZM43.2566 6.448L43.0491 5.46975L43.0429 5.4711L43.2566 6.448ZM47.1686 8.872L46.1752 8.75738L46.1742 8.76604L46.1734 8.77472L47.1686 8.872ZM46.5446 15.256L45.5494 15.1587L45.5485 15.1675L45.5478 15.1763L46.5446 15.256ZM46.5686 16.096L45.6108 16.3833L46.5686 16.096ZM47.3366 16.168L46.6295 15.4609L46.6024 15.488L46.5774 15.5172L47.3366 16.168ZM47.6486 15.592L46.7166 15.2296L46.7109 15.2443L46.7056 15.2592L47.6486 15.592ZM48.0326 14.44L47.0758 14.1494L47.0748 14.1527L48.0326 14.44ZM50.4086 6.616V5.616H49.6672L49.4518 6.32542L50.4086 6.616ZM54.9446 6.616L55.943 6.67326L56.0036 5.616H54.9446V6.616ZM54.3926 16.24L55.3907 16.3024L55.391 16.2973L54.3926 16.24ZM54.4886 16.84L53.6145 17.3256L53.6476 17.3854L53.6886 17.44L54.4886 16.84ZM56.0726 16.696L57.0287 16.403L56.6697 15.2313L55.5938 15.8181L56.0726 16.696ZM56.5286 18.184L57.0978 19.0062L57.699 18.59L57.4847 17.891L56.5286 18.184ZM55.7846 18.592L55.3785 17.6782L55.3686 17.6826L55.3588 17.6872L55.7846 18.592ZM54.8726 18.976L55.1889 19.9247L55.2089 19.918L55.2286 19.9105L54.8726 18.976ZM53.8646 19.24L53.6775 18.2577L53.8646 19.24ZM50.8646 18.592L50.112 19.2505L50.123 19.263L50.1344 19.2752L50.8646 18.592ZM50.3846 16.384L49.3945 16.2436L49.3934 16.2518L50.3846 16.384ZM51.2726 10.12L52.2627 10.2604L52.3954 9.32474L51.4687 9.13942L51.2726 10.12ZM51.0326 10.072L51.2287 9.09142L50.3384 8.91335L50.0755 9.78244L51.0326 10.072ZM49.3046 15.784L50.26 16.0793L50.2618 16.0736L49.3046 15.784ZM47.0486 19L47.4602 19.9114L47.4723 19.9059L47.4842 19.9002L47.0486 19ZM42.9206 18.376L42.1601 19.0253L42.1686 19.0352L42.1773 19.045L42.9206 18.376ZM42.2246 15.664L43.2212 15.747L43.2217 15.7407L42.2246 15.664ZM42.7046 9.424L41.7086 9.33345L41.7076 9.3473L42.7046 9.424ZM42.5846 8.704L41.7846 9.304L41.8072 9.33415L41.8321 9.3625L42.5846 8.704ZM41.6246 8.584L41.3615 7.61924L41.3493 7.62255L41.3373 7.62617L41.6246 8.584ZM41.0966 8.8L40.1419 9.09738L40.4917 10.2205L41.5438 9.69443L41.0966 8.8ZM41.1263 8.21016C41.345 8.08862 41.6618 7.95061 42.0946 7.80137L41.4426 5.91063C40.9474 6.08139 40.5122 6.26337 40.155 6.46184L41.1263 8.21016ZM42.0849 7.80468C42.53 7.65629 42.9917 7.52959 43.4703 7.4249L43.0429 5.4711C42.4975 5.59041 41.9672 5.73571 41.4524 5.90732L42.0849 7.80468ZM43.4641 7.42623C43.94 7.32529 44.3491 7.28 44.6966 7.28V5.28C44.1802 5.28 43.6292 5.34671 43.0491 5.46977L43.4641 7.42623ZM44.6966 7.28C45.4194 7.28 45.7681 7.46289 45.9448 7.64614L47.3845 6.25786C46.6972 5.54511 45.7338 5.28 44.6966 5.28V7.28ZM45.9448 7.64614C46.1035 7.81074 46.2495 8.11315 46.1752 8.75738L48.162 8.98662C48.2797 7.96684 48.0897 6.98926 47.3845 6.25786L45.9448 7.64614ZM46.1734 8.77472L45.5494 15.1587L47.5399 15.3533L48.1639 8.96928L46.1734 8.77472ZM45.5478 15.1763C45.516 15.5741 45.5032 16.0248 45.6108 16.3833L47.5265 15.8087C47.5389 15.8503 47.5292 15.8403 47.5262 15.7374C47.5236 15.6453 47.5272 15.5137 47.5414 15.3357L45.5478 15.1763ZM45.6108 16.3833C45.7026 16.6893 45.9007 16.9621 46.1996 17.1379C46.4726 17.2985 46.7572 17.336 46.9766 17.336V15.336C46.9786 15.336 47.0026 15.336 47.0421 15.3448C47.0823 15.3538 47.1438 15.373 47.2136 15.4141C47.3766 15.5099 47.4827 15.6627 47.5265 15.8087L45.6108 16.3833ZM46.9766 17.336C47.4206 17.336 47.8152 17.1462 48.0959 16.8188L46.5774 15.5172C46.6114 15.4775 46.6687 15.4266 46.7517 15.3878C46.8354 15.3488 46.9155 15.336 46.9766 15.336V17.336ZM48.0437 16.8751C48.3157 16.6031 48.4803 16.2404 48.5916 15.9248L46.7056 15.2592C46.6699 15.3604 46.6399 15.4257 46.6193 15.4637C46.5973 15.5045 46.597 15.4934 46.6295 15.4609L48.0437 16.8751ZM48.5806 15.9544C48.7062 15.6314 48.8429 15.2192 48.9905 14.7273L47.0748 14.1527C46.9344 14.6208 46.815 14.9766 46.7166 15.2296L48.5806 15.9544ZM48.9895 14.7306L51.3655 6.90658L49.4518 6.32542L47.0758 14.1494L48.9895 14.7306ZM50.4086 7.616H54.9446V5.616H50.4086V7.616ZM53.9463 6.55874L53.3943 16.1827L55.391 16.2973L55.943 6.67326L53.9463 6.55874ZM53.3946 16.1776C53.3728 16.5265 53.4034 16.9457 53.6145 17.3256L55.3628 16.3544C55.3906 16.4045 55.3937 16.4345 55.3921 16.424C55.3913 16.4194 55.3897 16.4073 55.389 16.3864C55.3883 16.3656 55.3885 16.3379 55.3907 16.3024L53.3946 16.1776ZM53.6886 17.44C53.9943 17.8475 54.4422 18.032 54.8966 18.032V16.032C54.9308 16.032 55.0023 16.0387 55.0884 16.0792C55.1777 16.1212 55.2452 16.182 55.2886 16.24L53.6886 17.44ZM54.8966 18.032C55.2006 18.032 55.4999 17.9812 55.7907 17.8918L55.2025 15.9802C55.0773 16.0188 54.9767 16.032 54.8966 16.032V18.032ZM55.7907 17.8918C56.0574 17.8097 56.3119 17.7046 56.5515 17.5739L55.5938 15.8181C55.4814 15.8794 55.3519 15.9343 55.2025 15.9802L55.7907 17.8918ZM55.1165 16.989L55.5725 18.477L57.4847 17.891L57.0287 16.403L55.1165 16.989ZM55.9594 17.3618C55.8135 17.4628 55.6227 17.5697 55.3785 17.6782L56.1908 19.5058C56.5226 19.3583 56.8278 19.1932 57.0978 19.0062L55.9594 17.3618ZM55.3588 17.6872C55.1136 17.8026 54.8334 17.9208 54.5166 18.0415L55.2286 19.9105C55.5838 19.7752 55.9116 19.6374 56.2104 19.4968L55.3588 17.6872ZM54.5564 18.0273C54.2612 18.1257 53.9683 18.2023 53.6775 18.2577L54.0517 20.2223C54.433 20.1497 54.8121 20.0503 55.1889 19.9247L54.5564 18.0273ZM53.6775 18.2577C53.3957 18.3113 53.1386 18.336 52.9046 18.336V20.336C53.2786 20.336 53.6616 20.2967 54.0517 20.2223L53.6775 18.2577ZM52.9046 18.336C52.1928 18.336 51.8147 18.1438 51.5949 17.9088L50.1344 19.2752C50.8426 20.0322 51.8244 20.336 52.9046 20.336V18.336ZM51.6172 17.9335C51.4285 17.7178 51.2693 17.3152 51.3759 16.5162L49.3934 16.2518C49.2439 17.3728 49.4048 18.4422 50.112 19.2505L51.6172 17.9335ZM51.3747 16.5244L52.2627 10.2604L50.2825 9.97964L49.3945 16.2436L51.3747 16.5244ZM51.4687 9.13942L51.2287 9.09142L50.8365 11.0526L51.0765 11.1006L51.4687 9.13942ZM50.0755 9.78244L48.3475 15.4944L50.2618 16.0736L51.9898 10.3616L50.0755 9.78244ZM48.3492 15.4887C48.0958 16.3086 47.8157 16.8945 47.5326 17.2884L49.1566 18.4556C49.6095 17.8255 49.9694 17.0194 50.26 16.0793L48.3492 15.4887ZM47.5326 17.2884C47.2476 17.6849 46.9388 17.9422 46.6131 18.0998L47.4842 19.9002C48.1505 19.5778 48.7056 19.0831 49.1566 18.4556L47.5326 17.2884ZM46.637 18.0886C46.2942 18.2435 45.8633 18.336 45.3206 18.336V20.336C46.0899 20.336 46.8111 20.2045 47.4602 19.9114L46.637 18.0886ZM45.3206 18.336C44.5215 18.336 44.0143 18.0964 43.6639 17.707L42.1773 19.045C42.9789 19.9356 44.0717 20.336 45.3206 20.336V18.336ZM43.6812 17.7267C43.347 17.3352 43.1395 16.7266 43.2212 15.747L41.2281 15.581C41.1177 16.9054 41.3743 18.1048 42.1601 19.0253L43.6812 17.7267ZM43.2217 15.7407L43.7017 9.5007L41.7076 9.3473L41.2276 15.5873L43.2217 15.7407ZM43.7005 9.51454C43.7211 9.2882 43.7238 9.04839 43.685 8.8156C43.6469 8.58719 43.5573 8.29708 43.3372 8.04549L41.8321 9.3625C41.777 9.29959 41.7466 9.24094 41.7309 9.20276C41.723 9.18363 41.7183 9.16865 41.7157 9.15914C41.7131 9.14962 41.7122 9.14441 41.7122 9.1444C41.7122 9.14435 41.7129 9.14839 41.7136 9.15706C41.7143 9.16571 41.715 9.17807 41.7152 9.19451C41.7157 9.2279 41.7142 9.27365 41.7087 9.33346L43.7005 9.51454ZM43.3846 8.104C43.0454 7.65164 42.548 7.512 42.1286 7.512V9.512C42.1329 9.512 42.085 9.51295 42.0106 9.48164C41.9284 9.44705 41.8464 9.38633 41.7846 9.304L43.3846 8.104ZM42.1286 7.512C41.8683 7.512 41.6115 7.55106 41.3615 7.61924L41.8877 9.54876C41.9897 9.52094 42.0689 9.512 42.1286 9.512V7.512ZM41.3373 7.62617C41.1093 7.69456 40.8791 7.79073 40.6494 7.90557L41.5438 9.69443C41.6982 9.61727 41.8199 9.56944 41.912 9.54183L41.3373 7.62617ZM42.0514 8.50262L41.5954 7.03862L39.6859 7.63338L40.1419 9.09738L42.0514 8.50262ZM58.5043 2.68L59.5034 2.72163L59.5392 1.86331L58.6961 1.69856L58.5043 2.68ZM56.4163 2.272L55.4245 2.14448L55.305 3.07376L56.2245 3.25344L56.4163 2.272ZM56.6323 0.591999V-0.408001H55.7527L55.6405 0.464478L56.6323 0.591999ZM62.2963 0.591999L62.8396 -0.247571L62.5916 -0.408001H62.2963V0.591999ZM62.7043 0.855999L63.7037 0.890843L63.7235 0.324359L63.2476 0.0164289L62.7043 0.855999ZM62.1763 16L63.1748 16.0555L63.1753 16.0452L63.1757 16.0348L62.1763 16ZM62.3203 16.72L61.4565 17.2239L61.4565 17.2239L62.3203 16.72ZM63.5683 16.912L63.8624 17.8678L63.8837 17.8612L63.9046 17.8537L63.5683 16.912ZM64.1923 16.624L65.1442 16.3175L64.7629 15.1335L63.6884 15.7602L64.1923 16.624ZM64.6483 18.04L65.2815 18.814L65.8091 18.3823L65.6002 17.7335L64.6483 18.04ZM63.7843 18.568L64.217 19.4695L64.2315 19.4626L64.2457 19.4552L63.7843 18.568ZM62.4163 19.096L62.118 18.1415L62.4163 19.096ZM59.2003 19.024L59.6214 18.117L59.2003 19.024ZM58.2163 18.088L57.3153 18.5218L57.3186 18.5285L57.3219 18.5352L58.2163 18.088ZM57.9283 16.504L56.9292 16.4624L56.9288 16.4704L56.9286 16.4784L57.9283 16.504ZM58.6961 1.69856L56.6081 1.29056L56.2245 3.25344L58.3125 3.66144L58.6961 1.69856ZM57.4081 2.39952L57.6241 0.719522L55.6405 0.464478L55.4245 2.14448L57.4081 2.39952ZM56.6323 1.592H62.2963V-0.408001H56.6323V1.592ZM61.7531 1.43157L62.1611 1.69557L63.2476 0.0164289L62.8396 -0.247571L61.7531 1.43157ZM61.7049 0.821155L61.1769 15.9652L63.1757 16.0348L63.7037 0.890843L61.7049 0.821155ZM61.1779 15.9445C61.1542 16.3706 61.2203 16.8189 61.4565 17.2239L63.1841 16.2161C63.1963 16.2371 63.1664 16.2054 63.1748 16.0555L61.1779 15.9445ZM61.4565 17.2239C61.8203 17.8475 62.4652 18.008 62.9683 18.008V16.008C62.9015 16.008 62.9159 15.997 62.9725 16.0222C63.0031 16.0358 63.0427 16.0586 63.0836 16.0946C63.125 16.1309 63.1589 16.1729 63.1841 16.2161L61.4565 17.2239ZM62.9683 18.008C63.2723 18.008 63.5716 17.9572 63.8624 17.8678L63.2742 15.9562C63.149 15.9948 63.0483 16.008 62.9683 16.008V18.008ZM63.9046 17.8537C64.1828 17.7544 64.4473 17.633 64.6962 17.4878L63.6884 15.7602C63.5533 15.839 63.4019 15.9096 63.232 15.9703L63.9046 17.8537ZM63.2405 16.9305L63.6965 18.3465L65.6002 17.7335L65.1442 16.3175L63.2405 16.9305ZM64.0151 17.266C63.9218 17.3423 63.7091 17.48 63.323 17.6808L64.2457 19.4552C64.6595 19.24 65.0228 19.0257 65.2815 18.814L64.0151 17.266ZM63.3516 17.6665C63.0029 17.8338 62.5932 17.993 62.118 18.1415L62.7146 20.0505C63.2635 19.879 63.7657 19.6862 64.217 19.4695L63.3516 17.6665ZM62.118 18.1415C61.704 18.2709 61.2766 18.336 60.8323 18.336V20.336C61.476 20.336 62.1047 20.2411 62.7146 20.0505L62.118 18.1415ZM60.8323 18.336C60.2965 18.336 59.9045 18.2484 59.6214 18.117L58.7792 19.931C59.3921 20.2156 60.0882 20.336 60.8323 20.336V18.336ZM59.6214 18.117C59.365 17.9979 59.211 17.8413 59.1107 17.6408L57.3219 18.5352C57.6376 19.1667 58.1396 19.6341 58.7792 19.931L59.6214 18.117ZM59.1173 17.6542C58.9958 17.4019 58.9149 17.0411 58.928 16.5296L56.9286 16.4784C56.9098 17.2149 57.0208 17.9101 57.3153 18.5218L59.1173 17.6542ZM58.9274 16.5456L59.5034 2.72163L57.5052 2.63837L56.9292 16.4624L58.9274 16.5456ZM78.3268 15.952L79.3258 15.9996L79.3262 15.9857L78.3268 15.952ZM78.3988 16.744L77.4501 17.0602L77.4667 17.11L77.4884 17.1578L78.3988 16.744ZM79.5748 16.888L79.2385 15.9463L79.2271 15.9503L79.2158 15.9547L79.5748 16.888ZM80.1268 16.624L81.0859 16.341L80.7017 15.0389L79.5721 15.792L80.1268 16.624ZM80.5588 18.088L81.199 18.8562L81.704 18.4354L81.5179 17.805L80.5588 18.088ZM79.6708 18.64L80.118 19.5344L80.1251 19.5309L80.1322 19.5272L79.6708 18.64ZM78.3508 19.12L78.1009 18.1517L78.0864 18.1555L78.072 18.1597L78.3508 19.12ZM75.3748 19.024L74.9276 19.9184L74.9343 19.9218L74.941 19.925L75.3748 19.024ZM74.4388 18.088L73.5378 18.5218L73.541 18.5285L73.5444 18.5352L74.4388 18.088ZM74.2708 16.432L75.2608 16.5734L74.2708 16.432ZM74.9188 11.896L75.9088 12.0374L76.0576 10.9954L75.0094 10.9001L74.9188 11.896ZM74.6548 11.872L74.7454 10.8761L73.9218 10.8012L73.6936 11.5961L74.6548 11.872ZM73.9108 14.464L72.9496 14.1881L72.9472 14.1965L72.945 14.2049L73.9108 14.464ZM73.3348 16.336L74.2754 16.6757L74.2783 16.6675L73.3348 16.336ZM72.5428 17.896L71.7196 17.3283L71.7153 17.3345L72.5428 17.896ZM71.3428 18.952L71.8015 19.8406L71.3428 18.952ZM67.0948 18.712L66.5256 19.5342L66.5328 19.5392L66.5401 19.5441L67.0948 18.712ZM65.7028 16.936L66.6299 16.5612L65.7028 16.936ZM65.6788 11.104L66.6379 11.387L66.6392 11.3828L65.6788 11.104ZM66.9508 8.56L66.1699 7.9353L66.1682 7.93748L66.9508 8.56ZM69.0388 6.88L68.6055 5.97872L68.5987 5.98208L69.0388 6.88ZM75.1588 6.976L74.7307 7.87974L75.0598 8.03559L75.412 7.94342L75.1588 6.976ZM77.7268 6.304L78.1149 5.38236L77.802 5.25064L77.4737 5.33657L77.7268 6.304ZM78.6388 6.688L79.6382 6.72166L79.6614 6.03354L79.0269 5.76637L78.6388 6.688ZM71.7748 16.264L70.9007 15.7784L70.8901 15.7974L70.8804 15.8168L71.7748 16.264ZM72.2788 14.968L73.2352 15.2602L73.2374 15.253L72.2788 14.968ZM72.9268 12.664L73.892 12.9257L73.8927 12.923L72.9268 12.664ZM74.0788 8.368L75.0447 8.627L75.24 7.89854L74.5933 7.51051L74.0788 8.368ZM71.3188 8.536L72.0259 9.24311L72.0338 9.23525L72.0415 9.22722L71.3188 8.536ZM70.4548 10.024L69.511 9.69365L69.5085 9.70069L69.5061 9.70777L70.4548 10.024ZM69.9988 12.184L70.9917 12.3031L70.992 12.3008L69.9988 12.184ZM69.8308 14.728L68.831 14.7101L68.8308 14.7191V14.728H69.8308ZM69.9268 16.144L68.9445 16.3311L68.9487 16.3535L68.954 16.3756L69.9268 16.144ZM70.2868 16.84L69.6621 17.6209L70.2868 16.84ZM77.3279 15.9044C77.3094 16.2931 77.3297 16.6988 77.4501 17.0602L79.3475 16.4278C79.34 16.4052 79.3122 16.2829 79.3257 15.9996L77.3279 15.9044ZM77.4884 17.1578C77.8051 17.8544 78.4894 18.008 78.9508 18.008V16.008C78.8987 16.008 78.9419 15.9986 79.0283 16.0399C79.0751 16.0623 79.1312 16.0981 79.1854 16.1524C79.2402 16.2072 79.2814 16.269 79.3092 16.3302L77.4884 17.1578ZM78.9508 18.008C79.2901 18.008 79.6195 17.9422 79.9338 17.8213L79.2158 15.9547C79.1141 15.9938 79.0275 16.008 78.9508 16.008V18.008ZM79.9111 17.8297C80.1857 17.7317 80.4495 17.6107 80.6815 17.4561L79.5721 15.792C79.5161 15.8293 79.412 15.8843 79.2385 15.9463L79.9111 17.8297ZM79.1677 16.907L79.5997 18.371L81.5179 17.805L81.0859 16.341L79.1677 16.907ZM79.9186 17.3198C79.8091 17.411 79.5879 17.556 79.2095 17.7528L80.1322 19.5272C80.5538 19.308 80.9245 19.085 81.199 18.8562L79.9186 17.3198ZM79.2236 17.7456C78.9133 17.9007 78.5414 18.0381 78.1009 18.1517L78.6007 20.0883C79.1522 19.9459 79.6603 19.7633 80.118 19.5344L79.2236 17.7456ZM78.072 18.1597C77.6628 18.2784 77.2606 18.336 76.8628 18.336V20.336C77.457 20.336 78.0468 20.2496 78.6296 20.0803L78.072 18.1597ZM76.8628 18.336C76.4279 18.336 76.0844 18.2558 75.8086 18.123L74.941 19.925C75.5293 20.2082 76.1777 20.336 76.8628 20.336V18.336ZM75.822 18.1296C75.5996 18.0183 75.4445 17.8633 75.3332 17.6408L73.5444 18.5352C73.8492 19.1447 74.3181 19.6137 74.9276 19.9184L75.822 18.1296ZM75.3398 17.6542C75.2467 17.4609 75.1816 17.1274 75.2608 16.5734L73.2809 16.2906C73.168 17.0806 73.2149 17.8511 73.5378 18.5218L75.3398 17.6542ZM75.2608 16.5734L75.9088 12.0374L73.9289 11.7546L73.2809 16.2906L75.2608 16.5734ZM75.0094 10.9001L74.7454 10.8761L74.5643 12.8679L74.8283 12.8919L75.0094 10.9001ZM73.6936 11.5961L72.9496 14.1881L74.872 14.7399L75.616 12.1479L73.6936 11.5961ZM72.945 14.2049C72.775 14.8384 72.5903 15.4382 72.3913 16.0045L74.2783 16.6675C74.4953 16.0498 74.6946 15.4016 74.8767 14.7231L72.945 14.2049ZM72.3943 15.9964C72.2129 16.4985 71.9868 16.9408 71.7196 17.3283L73.366 18.4637C73.7388 17.9232 74.0407 17.3255 74.2754 16.6756L72.3943 15.9964ZM71.7153 17.3345C71.508 17.64 71.2366 17.8815 70.8842 18.0634L71.8015 19.8406C72.441 19.5105 72.9696 19.048 73.3703 18.4575L71.7153 17.3345ZM70.8842 18.0634C70.5731 18.2239 70.1121 18.336 69.4468 18.336V20.336C70.3175 20.336 71.1205 20.1921 71.8015 19.8406L70.8842 18.0634ZM69.4468 18.336C68.6492 18.336 68.0714 18.1612 67.6495 17.8799L66.5401 19.5441C67.3663 20.0948 68.3564 20.336 69.4468 20.336V18.336ZM67.664 17.8898C67.2116 17.5766 66.8661 17.1454 66.6299 16.5612L64.7757 17.3108C65.1475 18.2306 65.73 18.9834 66.5256 19.5342L67.664 17.8898ZM66.6299 16.5612C66.3835 15.9516 66.2468 15.2114 66.2468 14.32H64.2468C64.2468 15.4126 64.4141 16.4164 64.7757 17.3108L66.6299 16.5612ZM66.2468 14.32C66.2468 13.234 66.3807 12.2587 66.6379 11.387L64.7197 10.821C64.4009 11.9013 64.2468 13.07 64.2468 14.32H66.2468ZM66.6392 11.3828C66.8962 10.4975 67.2656 9.77064 67.7334 9.18252L66.1682 7.93748C65.516 8.75736 65.0374 9.72651 64.7185 10.8252L66.6392 11.3828ZM67.7317 9.18469C68.217 8.57802 68.7973 8.11209 69.479 7.77792L68.5987 5.98208C67.6484 6.44791 66.8366 7.10198 66.1699 7.9353L67.7317 9.18469ZM69.4721 7.78125C70.1507 7.45501 70.9432 7.28 71.8708 7.28V5.28C70.6864 5.28 69.5909 5.50499 68.6055 5.97875L69.4721 7.78125ZM71.8708 7.28C72.5736 7.28 73.1406 7.35368 73.5881 7.48152L74.1375 5.55848C73.465 5.36632 72.704 5.28 71.8708 5.28V7.28ZM73.5881 7.48152C74.1276 7.63566 74.4992 7.77008 74.7307 7.87974L75.5869 6.07226C75.2104 5.89392 74.718 5.72434 74.1375 5.55848L73.5881 7.48152ZM75.412 7.94342L77.98 7.27142L77.4737 5.33657L74.9057 6.00857L75.412 7.94342ZM77.3388 7.22563L78.2508 7.60963L79.0269 5.76637L78.1149 5.38236L77.3388 7.22563ZM77.6394 6.65434L77.3274 15.9183L79.3262 15.9857L79.6382 6.72166L77.6394 6.65434ZM70.8388 18.032C71.2407 18.032 71.6276 17.9094 71.9568 17.6534L70.7289 16.0746C70.7436 16.0632 70.7658 16.0502 70.7926 16.0413C70.8188 16.0326 70.8364 16.032 70.8388 16.032V18.032ZM71.9568 17.6534C72.2769 17.4044 72.5021 17.0456 72.6692 16.7112L70.8804 15.8168C70.8255 15.9266 70.7802 15.9999 70.7473 16.0457C70.7129 16.0935 70.7044 16.0936 70.7289 16.0746L71.9568 17.6534ZM72.649 16.7496C72.8603 16.3693 73.0525 15.8579 73.2352 15.2602L71.3225 14.6758C71.1531 15.2301 71.0094 15.5827 70.9007 15.7784L72.649 16.7496ZM73.2374 15.253C73.4166 14.6502 73.6349 13.8736 73.892 12.9257L71.9617 12.4023C71.7067 13.3424 71.4931 14.1018 71.3203 14.683L73.2374 15.253ZM73.8927 12.923L75.0447 8.627L73.1129 8.10899L71.9609 12.405L73.8927 12.923ZM74.5933 7.51051C74.3429 7.36026 74.0548 7.24382 73.7531 7.14952L73.1565 9.05848C73.3668 9.12418 73.4947 9.18374 73.5643 9.22549L74.5933 7.51051ZM73.7531 7.14952C73.3992 7.03892 73.0345 6.984 72.6628 6.984V8.984C72.8351 8.984 72.9985 9.00908 73.1565 9.05848L73.7531 7.14952ZM72.6628 6.984C71.8667 6.984 71.1507 7.26502 70.5962 7.84478L72.0415 9.22722C72.1909 9.07098 72.371 8.984 72.6628 8.984V6.984ZM70.6117 7.82889C70.1223 8.31832 69.7676 8.96047 69.511 9.69365L71.3987 10.3543C71.5901 9.80753 71.8113 9.45767 72.0259 9.24311L70.6117 7.82889ZM69.5061 9.70777C69.272 10.4102 69.1078 11.1993 69.0057 12.0672L70.992 12.3008C71.0819 11.5367 71.2216 10.8858 71.4035 10.3402L69.5061 9.70777ZM69.0059 12.0649C68.9055 12.902 68.8475 13.784 68.831 14.7101L70.8307 14.7459C70.8461 13.88 70.9001 13.066 70.9917 12.3031L69.0059 12.0649ZM68.8308 14.728C68.8308 15.3585 68.863 15.9035 68.9445 16.3311L70.9091 15.9569C70.8626 15.7125 70.8308 15.3135 70.8308 14.728H68.8308ZM68.954 16.3756C69.0534 16.7932 69.2441 17.2865 69.6621 17.6209L70.9115 16.0591C70.9666 16.1032 70.9777 16.1351 70.965 16.1106C70.9521 16.0857 70.9264 16.025 70.8996 15.9124L68.954 16.3756ZM69.6621 17.6209C70.0023 17.893 70.4075 18.032 70.8388 18.032V16.032C70.8382 16.032 70.8417 16.032 70.8484 16.0331C70.8553 16.0342 70.8638 16.0362 70.8733 16.0395C70.8941 16.0467 70.9074 16.0559 70.9115 16.0591L69.6621 17.6209Z" fill="#14181D" mask="url(#path-1-outside-1_17_28)"/>
</svg>
